<?xml version="1.0" encoding="utf-8"?>
<!-- Generator: Adobe Illustrator 16.0.3, SVG Export Plug-In . SVG Version: 6.00 Build 0)  -->
<!DOCTYPE svg PUBLIC "-//W3C//DTD SVG 1.1//EN" "http://www.w3.org/Graphics/SVG/1.1/DTD/svg11.dtd">
<svg version="1.1" id="圖層_1" xmlns="http://www.w3.org/2000/svg" xmlns:xlink="http://www.w3.org/1999/xlink" x="0px" y="0px"
	 width="572px" height="549.967px" viewBox="0 0 572 549.967" enable-background="new 0 0 572 549.967" xml:space="preserve">
<g>
	<line opacity="0.3" fill="none" stroke="#D3D3D3" stroke-miterlimit="10" x1="317.811" y1="37.588" x2="317.811" y2="482.947"/>
	<line opacity="0.3" fill="none" stroke="#D3D3D3" stroke-miterlimit="10" x1="264.26" y1="73.614" x2="264.26" y2="442.479"/>
	<line opacity="0.3" fill="none" stroke="#D3D3D3" stroke-miterlimit="10" x1="210.71" y1="37.589" x2="210.71" y2="517.044"/>
	<line opacity="0.3" fill="none" stroke="#D3D3D3" stroke-miterlimit="10" x1="157.159" y1="134.563" x2="157.159" y2="461.588"/>
	<line opacity="0.3" fill="none" stroke="#D3D3D3" stroke-miterlimit="10" x1="371.361" y1="125.563" x2="371.361" y2="427.614"/>
	<line opacity="0.3" fill="none" stroke="#D3D3D3" stroke-miterlimit="10" x1="424.912" y1="164.281" x2="424.912" y2="461.589"/>
	<circle fill="none" stroke="#D3D3D3" stroke-miterlimit="10" cx="264.06" cy="249.588" r="15.375"/>
	<circle opacity="0.5" fill="none" stroke="#D3D3D3" stroke-miterlimit="10" cx="264.059" cy="249.588" r="21.562"/>
	<g opacity="0.3">
		<g>
			<line fill="none" stroke="#D3D3D3" stroke-miterlimit="10" x1="26.968" y1="249.588" x2="27.968" y2="249.588"/>
			
				<line fill="none" stroke="#D3D3D3" stroke-miterlimit="10" stroke-dasharray="2.0027,2.0027" x1="29.97" y1="249.588" x2="497.593" y2="249.588"/>
			<line fill="none" stroke="#D3D3D3" stroke-miterlimit="10" x1="498.594" y1="249.588" x2="499.594" y2="249.588"/>
		</g>
	</g>
	<g opacity="0.3">
		<g>
			<line fill="none" stroke="#D3D3D3" stroke-miterlimit="10" x1="59.5" y1="294.5" x2="60.5" y2="294.5"/>
			
				<line fill="none" stroke="#D3D3D3" stroke-miterlimit="10" stroke-dasharray="2.0048,2.0048" x1="62.505" y1="294.5" x2="474.497" y2="294.5"/>
			<line fill="none" stroke="#D3D3D3" stroke-miterlimit="10" x1="475.5" y1="294.5" x2="476.5" y2="294.5"/>
		</g>
	</g>
	<g opacity="0.3">
		<g>
			<line fill="none" stroke="#D3D3D3" stroke-miterlimit="10" x1="105.5" y1="200.939" x2="106.5" y2="200.939"/>
			
				<line fill="none" stroke="#D3D3D3" stroke-miterlimit="10" stroke-dasharray="1.9976,1.9976" x1="108.498" y1="200.939" x2="527.001" y2="200.939"/>
			<line fill="none" stroke="#D3D3D3" stroke-miterlimit="10" x1="528" y1="200.939" x2="529" y2="200.939"/>
		</g>
	</g>
	<circle fill="#F9F9F9" stroke="#0B5AFE" stroke-width="4" stroke-miterlimit="10" cx="264.06" cy="249.588" r="7.903"/>
</g>
</svg>
