<?xml version="1.0" encoding="utf-8"?>
<!-- Generator: Adobe Illustrator 16.0.3, SVG Export Plug-In . SVG Version: 6.00 Build 0)  -->
<!DOCTYPE svg PUBLIC "-//W3C//DTD SVG 1.1//EN" "http://www.w3.org/Graphics/SVG/1.1/DTD/svg11.dtd">
<svg version="1.1" id="圖層_1" xmlns="http://www.w3.org/2000/svg" xmlns:xlink="http://www.w3.org/1999/xlink" x="0px" y="0px"
	 width="87.577px" height="101.344px" viewBox="0 0 87.577 101.344" enable-background="new 0 0 87.577 101.344"
	 xml:space="preserve">
<g>
	<polygon fill="#FFFFFF" stroke="#333333" stroke-width="4" stroke-miterlimit="10" points="57.501,16.679 19.604,16.679 
		19.604,81.969 68.647,81.969 68.647,28.938 	"/>
	<polygon fill="#333333" points="68.663,28.938 57.517,28.938 57.517,16.679 55.287,16.679 55.287,31.168 68.663,31.168 	"/>
	<rect x="23.78" y="24.48" opacity="0.8" fill="#4285F4" width="26.751" height="2.229"/>
	<rect x="23.78" y="30.054" opacity="0.8" fill="#4285F4" width="26.751" height="2.229"/>
	<rect x="23.78" y="35.627" opacity="0.8" fill="#4285F4" width="26.751" height="2.229"/>
	<rect x="23.78" y="41.019" opacity="0.8" fill="#4285F4" width="26.751" height="2.229"/>
	<rect x="32.005" y="51.232" opacity="0.8" fill="#4285F4" width="46.081" height="16.934"/>
	<text transform="matrix(1 0 0 1 44.126 63.8125)" font-family="'jf-jinxuan-fresh-Medium-B5pc-H'" font-size="11.6077">PDF</text>
	<polygon opacity="0.8" fill="#4285F4" points="57.521,28.937 65.755,28.937 67.814,28.937 57.521,17.903 57.522,20.701 	"/>
</g>
</svg>
