<?xml version="1.0" encoding="utf-8"?>
<!-- Generator: Adobe Illustrator 16.0.3, SVG Export Plug-In . SVG Version: 6.00 Build 0)  -->
<!DOCTYPE svg PUBLIC "-//W3C//DTD SVG 1.1//EN" "http://www.w3.org/Graphics/SVG/1.1/DTD/svg11.dtd">
<svg version="1.1" id="圖層_1" xmlns="http://www.w3.org/2000/svg" xmlns:xlink="http://www.w3.org/1999/xlink" x="0px" y="0px"
	 width="303.155px" height="233.195px" viewBox="0 0 303.155 233.195" enable-background="new 0 0 303.155 233.195"
	 xml:space="preserve">
<g>
	<g>
		<g>
			<g>
				<path fill="#4285F4" d="M136.332,116.249c-3.521,0-6.373-2.852-6.373-6.375c0-3.52,2.852-6.373,6.373-6.373
					c1.167,0,2.247,0.34,3.187,0.885V14.356c-1.062-0.036-2.119-0.08-3.187-0.08c-52.799,0-95.599,42.8-95.599,95.598
					c0,52.801,42.8,95.602,95.599,95.602c1.067,0,2.125-0.045,3.187-0.08v-90.03C138.578,115.911,137.498,116.249,136.332,116.249z"
					/>
				<path fill="#333333" d="M66.955,170.932l-4.78,4.22c2.85,3.225,5.921,6.287,9.136,9.1l4.196-4.799
					C72.5,176.822,69.623,173.952,66.955,170.932z"/>
				<path fill="#333333" d="M81.561,192.101c3.574,2.383,7.335,4.556,11.181,6.448l2.817-5.72
					c-3.598-1.771-7.116-3.796-10.462-6.035L81.561,192.101z"/>
				<path fill="#333333" d="M104.679,203.479c4.06,1.373,8.259,2.492,12.482,3.324l1.23-6.256c-3.948-0.774-7.874-1.82-11.673-3.106
					L104.679,203.479z"/>
				<path fill="#333333" d="M45.726,128.159l-6.249,1.254c0.845,4.202,1.976,8.396,3.365,12.459l6.032-2.059
					C47.575,136.009,46.513,132.089,45.726,128.159z"/>
				<path fill="#333333" d="M47.813,153.775c1.905,3.836,4.088,7.59,6.484,11.15l5.287-3.554c-2.24-3.332-4.279-6.841-6.064-10.434
					L47.813,153.775z"/>
				<path fill="#333333" d="M130.366,202.097l-0.407,6.363c2.105,0.133,4.231,0.201,6.373,0.201c2.183,0,1.459-0.07,3.604-0.21
					l-0.417-6.36C135.528,202.353,134.359,202.354,130.366,202.097z"/>
				<path fill="#333333" d="M139.519,11.089c-54.47,0-101.973,44.319-101.973,98.785c0,2.194,0.074,4.411,0.214,6.582l6.36-0.416
					c-0.134-2.037-0.2-4.093-0.2-6.166c0-50.957,44.642-92.41,95.6-92.41"/>
				<path fill="#333333" d="M139.518,100.901V30.21h-3.187c-43.928,0-79.667,35.737-79.667,79.664
					c0,43.93,35.739,79.666,79.667,79.666h3.187v-70.691 M133.145,74.685c-9.598-0.483-18.285-3.04-25.576-6.264
					c8.071-15.791,19.314-25.083,25.576-29.349V74.685z M101.989,65.706c-6.909-3.675-12.094-7.58-14.977-9.975
					c10.34-9.426,23.374-15.936,37.799-18.226C117.948,43.115,108.895,52.313,101.989,65.706z M99.252,71.55
					c-4.156,9.736-7.061,21.386-7.46,35.139H63.119c0.768-17.871,7.973-34.094,19.339-46.43
					C85.552,62.903,91.358,67.388,99.252,71.55z M91.792,113.063c0.396,13.757,3.305,25.406,7.46,35.139
					c-7.894,4.164-13.7,8.646-16.793,11.289c-11.37-12.334-18.571-28.558-19.339-46.428H91.792z M101.989,154.045
					c6.905,13.394,15.958,22.59,22.822,28.199c-14.429-2.288-27.462-8.799-37.799-18.224
					C89.896,161.624,95.081,157.716,101.989,154.045z M107.693,151.279c7.265-3.202,15.908-5.729,25.452-6.21v35.548
					C126.938,176.294,115.769,166.933,107.693,151.279z M133.145,138.688c-10.662,0.48-20.217,3.236-28.173,6.746
					c-3.773-8.969-6.418-19.699-6.804-32.37h29.192c0.963,2.698,3.088,4.824,5.788,5.788v19.836H133.145L133.145,138.688z
					 M127.358,106.688H98.162c0.379-12.723,2.983-23.459,6.706-32.414c7.979,3.527,17.571,6.307,28.278,6.788v19.839
					C130.446,101.865,128.32,103.99,127.358,106.688z M136.332,113.063c-1.756,0-3.187-1.431-3.187-3.188
					c0-1.754,1.431-3.186,3.187-3.186s3.187,1.432,3.187,3.186C139.519,111.632,138.087,113.063,136.332,113.063z"/>
			</g>
		</g>
	</g>
	<g>
		<g>
			<g>
				<path fill="#4285F4" d="M133.717,115.365v90.03c1.062,0.035,2.12,0.08,3.188,0.08c52.799,0,95.599-42.801,95.599-95.602
					c0-52.798-42.8-95.598-95.599-95.598c-1.069,0-2.126,0.044-3.188,0.08v90.029c0.94-0.545,2.021-0.885,3.188-0.885
					c3.521,0,6.374,2.854,6.374,6.373c0,3.523-2.853,6.375-6.374,6.375C135.738,116.249,134.659,115.911,133.717,115.365z"/>
				<path fill="#333333" d="M197.729,179.452l4.196,4.799c3.216-2.813,6.287-5.875,9.136-9.1l-4.78-4.22
					C203.614,173.952,200.737,176.822,197.729,179.452z"/>
				<path fill="#333333" d="M188.139,186.794c-3.346,2.239-6.864,4.264-10.461,6.035l2.817,5.72
					c3.846-1.893,7.606-4.065,11.181-6.448L188.139,186.794z"/>
				<path fill="#333333" d="M166.518,197.441c-3.798,1.286-7.724,2.332-11.672,3.106l1.23,6.256
					c4.222-0.832,8.422-1.951,12.481-3.324L166.518,197.441z"/>
				<path fill="#333333" d="M224.362,139.813l6.032,2.059c1.39-4.063,2.521-8.257,3.365-12.459l-6.248-1.254
					C226.723,132.089,225.662,136.009,224.362,139.813z"/>
				<path fill="#333333" d="M219.715,150.938c-1.784,3.593-3.824,7.102-6.063,10.434l5.287,3.554
					c2.396-3.561,4.579-7.314,6.485-11.15L219.715,150.938z"/>
				<path fill="#333333" d="M133.717,202.091l-0.417,6.36c2.145,0.14,1.422,0.21,3.605,0.21c2.142,0,4.267-0.068,6.374-0.201
					l-0.408-6.363C138.877,202.354,137.708,202.353,133.717,202.091z"/>
				<path fill="#333333" d="M133.717,17.464c50.958,0,95.6,41.453,95.6,92.41c0,2.073-0.066,4.129-0.2,6.166l6.36,0.416
					c0.141-2.171,0.214-4.388,0.214-6.582c0-54.466-47.504-98.785-101.974-98.785"/>
				<path fill="#333333" d="M133.718,118.849v70.691h3.187c43.928,0,79.667-35.736,79.667-79.666
					c0-43.927-35.738-79.664-79.666-79.664h-3.188v70.691 M140.091,39.072c6.262,4.266,17.504,13.558,25.576,29.349
					c-7.292,3.224-15.978,5.78-25.576,6.264V39.072z M148.425,37.506c14.425,2.29,27.459,8.8,37.8,18.226
					c-2.884,2.395-8.069,6.3-14.978,9.975C164.342,52.313,155.289,43.115,148.425,37.506z M190.778,60.259
					c11.366,12.336,18.572,28.559,19.339,46.43h-28.673c-0.398-13.753-3.304-25.402-7.46-35.139
					C181.877,67.388,187.684,62.903,190.778,60.259z M210.117,113.063c-0.767,17.87-7.97,34.094-19.339,46.428
					c-3.094-2.644-8.9-7.125-16.793-11.289c4.155-9.732,7.065-21.382,7.459-35.139H210.117z M186.225,164.021
					c-10.338,9.425-23.371,15.936-37.8,18.224c6.864-5.609,15.917-14.806,22.822-28.199
					C178.156,157.716,183.341,161.624,186.225,164.021z M140.091,180.617v-35.548c9.544,0.48,18.186,3.008,25.452,6.21
					C157.468,166.933,146.299,176.294,140.091,180.617z M140.091,138.688h-0.003v-19.836c2.7-0.964,4.824-3.09,5.788-5.788h29.192
					c-0.385,12.671-3.031,23.401-6.804,32.37C160.308,141.925,150.754,139.169,140.091,138.688L140.091,138.688z M140.091,100.901
					V81.063c10.707-0.481,20.299-3.261,28.278-6.788c3.722,8.955,6.326,19.691,6.706,32.414h-29.196
					C144.917,103.99,142.79,101.865,140.091,100.901z M133.717,109.874c0-1.754,1.432-3.186,3.188-3.186
					c1.755,0,3.187,1.432,3.187,3.186c0,1.758-1.431,3.188-3.187,3.188S133.718,111.632,133.717,109.874z"/>
			</g>
		</g>
	</g>
	<g>
		<g>
			<g id="XMLID_8_">
				<g>
					<path fill="#333333" d="M281.272,145.093c3.995,0,7.242,3.251,7.242,7.246c0,3.994-3.247,7.246-7.242,7.246h-4.832h-4.828
						h-4.833h-4.828v9.659h-9.66v14.488H150.866V58.158c-6.658,0-12.074-5.416-12.074-12.073c0-6.658,5.416-12.074,12.074-12.074
						h99.012c6.658,0,12.074,5.416,12.074,12.074v99.008h4.828h4.833h4.828H281.272z M283.686,152.339
						c0-1.332-1.083-2.414-2.414-2.414h-4.832v4.827h4.832C282.604,154.752,283.686,153.67,283.686,152.339z M271.612,154.752
						v-4.827h-4.833v4.827H271.612z M261.952,154.752v-4.827h-79.693v4.827H261.952z M257.12,164.412v-4.827h-4.828v4.827H257.12z
						 M257.12,145.093V46.085c0-3.995-3.247-7.246-7.242-7.246c-3.995,0-7.246,3.251-7.246,7.246c0,3.994,3.251,7.246,7.246,7.246
						h2.414v91.762H257.12z M247.465,145.093V58.158h-91.767v120.746h91.762v-19.319h-68.005l-21.733-7.246l21.733-7.246H247.465z
						 M240.28,38.839h-89.414c-3.995,0-7.242,3.251-7.242,7.246c0,3.994,3.251,7.246,7.242,7.246h89.414
						c-1.534-2.023-2.475-4.518-2.475-7.246C237.805,43.355,238.746,40.861,240.28,38.839z M177.432,153.816v-2.96l-4.438,1.482
						L177.432,153.816z"/>
					<rect x="182.259" y="149.925" fill="#FFFFFF" width="79.693" height="4.827"/>
					<path fill="#FFFFFF" d="M257.12,46.085v99.008h-4.828V53.331h-2.414c-3.995,0-7.246-3.252-7.246-7.246
						c0-3.995,3.251-7.246,7.246-7.246C253.874,38.839,257.12,42.09,257.12,46.085z"/>
					<path fill="#FFFFFF" d="M247.465,58.158v86.935h-68.01l-21.733,7.246l21.733,7.246h68.005v19.319h-91.762V58.158H247.465z
						 M242.632,130.605v-4.828h-9.66v4.828H242.632z M242.632,120.945v-4.828h-50.713v4.828H242.632z M242.632,106.458v-4.833
						h-36.221v4.833H242.632z M242.632,96.798v-4.832h-50.713v4.832H242.632z M242.632,72.646v-4.827h-9.66v4.827H242.632z
						 M232.973,82.306v-4.828h-41.053v4.828H232.973z M228.145,130.605v-4.828h-36.226v4.828H228.145z M228.145,72.646v-4.827
						h-36.226v4.827H228.145z M201.579,106.458v-4.833h-9.66v4.833H201.579z M183.808,69.672l-1.51-1.812l-0.019-0.023
						c-0.254-0.344-0.532-0.668-0.823-0.983l-0.744-0.89l-0.089,0.076c-2.131-1.896-4.94-3.05-8.022-3.05
						c-6.667,0-12.074,5.402-12.074,12.074c0,0.606,0.042,1.199,0.132,1.783c0.861,5.82,5.881,10.29,11.942,10.29
						c6.672,0,12.079-5.406,12.079-12.073c0-1.845-0.414-3.595-1.153-5.157L183.808,69.672z M183.808,93.819l-3.096-3.708
						l-12.789,10.662l-3.274-3.27l-3.412,3.416l6.385,6.39L183.808,93.819z M183.808,117.972l-3.096-3.713l-12.789,10.662
						l-3.274-3.27l-3.412,3.416l6.385,6.39L183.808,117.972z"/>
					<rect x="232.973" y="125.777" fill="#333333" width="9.66" height="4.828"/>
					<rect x="191.919" y="116.117" fill="#333333" width="50.713" height="4.828"/>
					<rect x="206.412" y="101.625" fill="#333333" width="36.221" height="4.833"/>
					<rect x="191.919" y="91.966" fill="#333333" width="50.713" height="4.832"/>
					<rect x="232.973" y="67.818" fill="#333333" width="9.66" height="4.827"/>
					<path fill="#FFFFFF" d="M150.866,38.839h89.414c-1.534,2.022-2.475,4.517-2.475,7.246c0,2.729,0.941,5.223,2.475,7.246h-89.414
						c-3.99,0-7.242-3.252-7.242-7.246C143.625,42.09,146.871,38.839,150.866,38.839z"/>
					<rect x="191.919" y="77.478" fill="#333333" width="41.053" height="4.828"/>
					<rect x="191.919" y="125.777" fill="#333333" width="36.226" height="4.828"/>
					<rect x="191.919" y="67.818" fill="#333333" width="36.226" height="4.827"/>
					<rect x="191.919" y="101.625" fill="#333333" width="9.66" height="4.833"/>
					<path fill="#333333" d="M182.297,67.86l1.51,1.812l-0.282,0.235C183.182,69.183,182.768,68.5,182.297,67.86z"/>
					<polygon fill="#333333" points="180.711,90.111 183.808,93.819 167.622,107.31 161.236,100.92 164.648,97.504 167.922,100.773 
											"/>
					<polygon fill="#333333" points="180.711,114.259 183.808,117.972 167.622,131.457 161.236,125.067 164.648,121.651 
						167.922,124.921 					"/>
					<path fill="#4285F4" d="M183.525,69.907c0.739,1.563,1.153,3.313,1.153,5.157c0,6.667-5.407,12.073-12.079,12.073
						c-6.061,0-11.081-4.47-11.942-10.29l0.579-0.075l6.385,6.39L183.525,69.907z"/>
					<path fill="#333333" d="M183.525,69.907l-15.904,13.255l-6.385-6.39l3.412-3.416l3.274,3.27l12.7-10.586
						c0.292,0.259,0.569,0.526,0.833,0.813l0.823,0.983l0.019,0.023C182.768,68.5,183.182,69.183,183.525,69.907z"/>
					<path fill="#4285F4" d="M182.278,67.837l-0.823-0.983C181.747,67.169,182.024,67.493,182.278,67.837z"/>
					<path fill="#333333" d="M181.455,66.854c-0.264-0.287-0.542-0.555-0.833-0.813l0.089-0.076L181.455,66.854z"/>
					<path fill="#4285F4" d="M180.622,66.04l-12.7,10.586l-3.274-3.27l-3.412,3.416l-0.579,0.075
						c-0.089-0.584-0.132-1.177-0.132-1.783c0-6.672,5.406-12.074,12.074-12.074C175.682,62.99,178.491,64.144,180.622,66.04z"/>
				</g>
			</g>
		</g>
	</g>
</g>
</svg>
