<?xml version="1.0" encoding="utf-8"?>
<!-- Generator: Adobe Illustrator 16.0.3, SVG Export Plug-In . SVG Version: 6.00 Build 0)  -->
<!DOCTYPE svg PUBLIC "-//W3C//DTD SVG 1.1//EN" "http://www.w3.org/Graphics/SVG/1.1/DTD/svg11.dtd">
<svg version="1.1" id="圖層_1" xmlns="http://www.w3.org/2000/svg" xmlns:xlink="http://www.w3.org/1999/xlink" x="0px" y="0px"
	 width="305.148px" height="235.453px" viewBox="0 0 305.148 235.453" enable-background="new 0 0 305.148 235.453"
	 xml:space="preserve">
<g>
	<g opacity="0.8">
		<path fill="#4285F4" d="M61.784,27.806c-23.611,0-42.751,19.139-42.751,42.752c0,23.61,19.139,42.75,42.751,42.75
			c23.612,0,42.751-19.14,42.751-42.75H61.784V27.806z"/>
		<path fill="#4285F4" d="M68.824,20.766v42.751h42.751C111.576,39.906,92.436,20.766,68.824,20.766z"/>
	</g>
	<rect x="124.561" y="36.837" fill="#333333" width="68.402" height="8.551"/>
	<rect x="137.082" y="50.392" fill="#333333" width="55.577" height="8.551"/>
	<rect x="132.851" y="66.008" fill="#333333" width="8.55" height="8.55"/>
	<rect x="149.952" y="66.008" fill="#333333" width="8.55" height="8.55"/>
	<rect x="167.052" y="66.008" fill="#333333" width="8.55" height="8.55"/>
	<rect x="184.153" y="66.008" fill="#333333" width="8.55" height="8.55"/>
	<g>
		<g id="XMLID_7_" opacity="0.8">
			<g>
				<path fill="#333333" d="M264.259,195.702v14.705c0,6.081-4.95,11.028-11.028,11.028H47.361c-6.081,0-11.028-4.947-11.028-11.028
					v-14.705h25.734v-95.581c0-6.081,4.947-11.028,11.028-11.028h153.29l17.154-20.581c-0.825-1.547-1.338-3.283-1.338-5.152
					c0-6.081,4.947-11.028,11.031-11.028c6.078,0,11.028,4.947,11.028,11.028s-4.95,11.028-11.028,11.028
					c-1.522,0-2.974-0.309-4.294-0.873l-14.848,17.819c2.677,2.015,4.437,5.188,4.437,8.787v95.581H264.259z M256.905,210.407
					v-7.351h-18.38H62.066H43.684v7.351c0,2.027,1.653,3.678,3.677,3.678h205.87C255.255,214.085,256.905,212.435,256.905,210.407z
					 M256.905,63.359c0-2.027-1.65-3.678-3.674-3.678c-2.027,0-3.677,1.65-3.677,3.678c0,2.023,1.65,3.677,3.677,3.677
					C255.255,67.036,256.905,65.383,256.905,63.359z M231.174,195.702v-95.581c0-1.335-0.754-2.457-1.825-3.104l-5.651,6.781h-9.565
					l6.128-7.354H73.095c-2.027,0-3.677,1.649-3.677,3.677v95.581H231.174z"/>
				<path fill="#FCFCFC" d="M256.905,203.057v7.351c0,2.027-1.65,3.678-3.674,3.678H47.361c-2.024,0-3.677-1.65-3.677-3.678v-7.351
					h18.382h176.459H256.905z"/>
				<path fill="#4285F4" d="M231.174,100.121v95.581H69.417v-95.581c0-2.027,1.65-3.677,3.677-3.677h147.167l-6.128,7.354H76.772
					v84.553H223.82v-84.553h-0.122l5.651-6.781C230.42,97.664,231.174,98.786,231.174,100.121z"/>
				<path fill="#4285F4" d="M223.82,103.798v84.553H76.772v-84.553h137.361l-37.489,44.986c-1.318-0.563-2.769-0.873-4.292-0.873
					c-2.968,0-5.65,1.19-7.633,3.102l-25.588-12.791c0.056-0.445,0.136-0.885,0.136-1.339c0-6.08-4.947-11.028-11.028-11.028
					s-11.028,4.948-11.028,11.028c0,1.698,0.416,3.286,1.104,4.726l-18.436,18.436c-1.439-0.688-3.03-1.104-4.728-1.104
					c-6.081,0-11.028,4.951-11.028,11.028c0,6.081,4.947,11.028,11.028,11.028s11.028-4.947,11.028-11.028
					c0-1.697-0.416-3.285-1.104-4.722l18.436-18.438c1.439,0.688,3.03,1.104,4.728,1.104c2.965,0,5.651-1.189,7.633-3.101
					l25.588,12.791c-0.057,0.445-0.137,0.884-0.137,1.338c0,6.081,4.944,11.028,11.028,11.028c6.081,0,11.028-4.947,11.028-11.028
					c0-1.872-0.51-3.605-1.335-5.154l41.653-49.987H223.82z"/>
				<path fill="#333333" d="M223.698,103.798l-41.653,49.987c0.825,1.549,1.335,3.282,1.335,5.154
					c0,6.081-4.947,11.028-11.028,11.028c-6.084,0-11.028-4.947-11.028-11.028c0-0.454,0.08-0.893,0.137-1.338l-25.588-12.791
					c-1.982,1.911-4.668,3.101-7.633,3.101c-1.697,0-3.288-0.415-4.728-1.104l-18.436,18.438c0.688,1.437,1.104,3.024,1.104,4.722
					c0,6.081-4.947,11.028-11.028,11.028s-11.028-4.947-11.028-11.028c0-6.077,4.947-11.028,11.028-11.028
					c1.698,0,3.289,0.416,4.728,1.104l18.436-18.436c-0.688-1.439-1.104-3.027-1.104-4.726c0-6.08,4.947-11.028,11.028-11.028
					s11.028,4.948,11.028,11.028c0,0.454-0.08,0.894-0.136,1.339l25.588,12.791c1.983-1.911,4.666-3.102,7.633-3.102
					c1.522,0,2.974,0.31,4.292,0.873l37.489-44.986H223.698z M176.03,158.939c0-2.023-1.65-3.674-3.677-3.677
					c-2.027,0-3.677,1.653-3.677,3.677c0,2.027,1.65,3.678,3.677,3.678S176.03,160.967,176.03,158.939z M131.914,136.883
					c0-2.026-1.65-3.677-3.674-3.677c-2.027,0-3.677,1.65-3.677,3.677c0,2.027,1.65,3.678,3.677,3.678
					C130.263,140.561,131.914,138.91,131.914,136.883z M98.829,169.968c0-2.023-1.65-3.677-3.677-3.677
					c-2.024,0-3.677,1.653-3.677,3.677c0,2.027,1.653,3.678,3.677,3.678C97.178,173.646,98.829,171.995,98.829,169.968z"/>
				<path fill="#FFFFFF" d="M172.353,155.263c2.027,0.003,3.677,1.653,3.677,3.677c0,2.027-1.65,3.678-3.677,3.678
					s-3.677-1.65-3.677-3.678C168.675,156.916,170.326,155.263,172.353,155.263z"/>
				<path fill="#FFFFFF" d="M128.239,133.206c2.024,0,3.674,1.65,3.674,3.677c0,2.027-1.65,3.678-3.674,3.678
					c-2.027,0-3.677-1.65-3.677-3.678C124.562,134.856,126.212,133.206,128.239,133.206z"/>
				<path fill="#FFFFFF" d="M95.151,166.291c2.027,0,3.677,1.653,3.677,3.677c0,2.027-1.65,3.678-3.677,3.678
					c-2.024,0-3.677-1.65-3.677-3.678C91.474,167.944,93.127,166.291,95.151,166.291z"/>
			</g>
		</g>
	</g>
</g>
</svg>
