<?xml version="1.0" encoding="utf-8"?>
<!-- Generator: Adobe Illustrator 16.0.3, SVG Export Plug-In . SVG Version: 6.00 Build 0)  -->
<!DOCTYPE svg PUBLIC "-//W3C//DTD SVG 1.1//EN" "http://www.w3.org/Graphics/SVG/1.1/DTD/svg11.dtd">
<svg version="1.1" id="圖層_1" xmlns="http://www.w3.org/2000/svg" xmlns:xlink="http://www.w3.org/1999/xlink" x="0px" y="0px"
	 width="109.617px" height="107.954px" viewBox="0 0 109.617 107.954" enable-background="new 0 0 109.617 107.954"
	 xml:space="preserve">
<g>
	<circle opacity="0.8" fill="#4285F4" cx="58.605" cy="41.943" r="18.825"/>
	<g>
		<path fill="#333333" d="M61.97,31.187h-6.724c-2.595,0-4.706,2.111-4.706,4.707v3.361h2.689v-3.361
			c0-1.113,0.905-2.018,2.017-2.018h6.724c1.112,0,2.016,0.904,2.016,2.018v4.032c0,1.113-0.904,2.019-2.016,2.019
			c-2.596,0-4.707,2.11-4.707,4.705v2.017h2.689v-2.017c0-1.111,0.904-2.016,2.017-2.016c2.595,0,4.706-2.111,4.706-4.708v-4.032
			C66.675,33.298,64.564,31.187,61.97,31.187z"/>
		<rect x="57.261" y="51.356" fill="#333333" width="2.689" height="2.688"/>
		<path fill="#333333" d="M85.5,11.018v2.689h6.039l-9.1,8.62c-5.6-6.778-14.018-11.162-23.417-11.281
			c-0.132-0.002-0.261-0.002-0.391-0.002c-9.414,0-18.042,4.364-23.793,11.341l-9.161-8.678h6.038v-2.689H20.958v10.757h2.689
			v-6.287l9.561,9.057c-2.284,3.318-3.979,7.103-4.857,11.237c-0.754,3.552-0.848,7.216-0.281,10.896l-9.092,16.261l10.05,2.878
			l0.022,16.466h13.445v12.102h2.689V79.593H31.737l-0.022-15.805l-8.731-2.5l7.894-14.119l-0.079-0.468
			c-0.593-3.505-0.532-6.989,0.185-10.359c0.771-3.635,2.233-6.976,4.198-9.929l11.745,11.128l1.849-1.95L36.786,24.232
			c5.321-6.558,13.394-10.638,22.2-10.497c8.647,0.109,16.386,4.172,21.499,10.442L68.438,35.59l1.849,1.95l11.807-11.186
			c2.997,4.481,4.748,9.852,4.748,15.603l0.002,4.906c0.009,10.772-5.295,20.856-14.187,26.978l-0.582,0.4v20.143h2.688V75.646
			c9.27-6.658,14.777-17.364,14.769-28.786l-0.001-4.904c0-6.463-2.024-12.484-5.463-17.468l9.5-9v6.286h2.689V11.018H85.5z"/>
	</g>
</g>
</svg>
