<?xml version="1.0" encoding="utf-8"?>
<!-- Generator: Adobe Illustrator 16.0.3, SVG Export Plug-In . SVG Version: 6.00 Build 0)  -->
<!DOCTYPE svg PUBLIC "-//W3C//DTD SVG 1.1//EN" "http://www.w3.org/Graphics/SVG/1.1/DTD/svg11.dtd">
<svg version="1.1" id="圖層_1" xmlns="http://www.w3.org/2000/svg" xmlns:xlink="http://www.w3.org/1999/xlink" x="0px" y="0px"
	 width="103.901px" height="88px" viewBox="0 0 103.901 88" enable-background="new 0 0 103.901 88" xml:space="preserve">
<g>
	<path opacity="0.8" fill="#4285F4" d="M65.047,37H48.788c-10.904,0-19.742,8.839-19.742,19.743l0,0
		c0,10.904,8.838,19.742,19.742,19.742h16.259c0.119,0,0.236-0.016,0.355-0.017l12.419,6.985V71.78
		c4.258-3.619,6.968-9.009,6.968-15.037l0,0C84.79,45.839,75.951,37,65.047,37z M56.337,41.646 M47.627,50.356"/>
	<g>
		<rect x="24.4" y="33.518" fill="#333333" width="26.711" height="2.321"/>
		<path fill="#333333" d="M51.111,12.612H34.852c-11.526,0-20.904,9.377-20.904,20.904c0,5.951,2.533,11.592,6.968,15.563v13.148
			l8.423-4.195l-1.152-2.017l-4.948,2.209V48.017l-0.41-0.349c-4.167-3.543-6.558-8.702-6.558-14.151
			c0-10.245,8.336-18.582,18.581-18.582h16.259c10.246,0,18.581,8.337,18.581,18.582c0,1.313-0.148,2.653-0.44,3.986L71.521,38
			c0.327-1.495,0.494-3.005,0.494-4.483C72.015,21.989,62.637,12.612,51.111,12.612z"/>
		<rect x="24.4" y="21.903" fill="#333333" width="37.163" height="2.322"/>
		<rect x="24.4" y="27.71" fill="#333333" width="37.163" height="2.322"/>
		<rect x="38.336" y="47.325" fill="#FFFFFF" width="37.163" height="2.323"/>
		<rect x="38.336" y="54.293" fill="#FFFFFF" width="37.163" height="2.323"/>
		<rect x="38.336" y="61.262" fill="#FFFFFF" width="26.71" height="2.323"/>
	</g>
</g>
</svg>
