<?xml version="1.0" encoding="utf-8"?>
<!-- Generator: Adobe Illustrator 16.0.3, SVG Export Plug-In . SVG Version: 6.00 Build 0)  -->
<!DOCTYPE svg PUBLIC "-//W3C//DTD SVG 1.1//EN" "http://www.w3.org/Graphics/SVG/1.1/DTD/svg11.dtd">
<svg version="1.1" id="圖層_1" xmlns="http://www.w3.org/2000/svg" xmlns:xlink="http://www.w3.org/1999/xlink" x="0px" y="0px"
	 width="118.682px" height="128.166px" viewBox="0 0 118.682 128.166" enable-background="new 0 0 118.682 128.166"
	 xml:space="preserve">
<g>
	<g>
		<path fill="none" d="M48.359,80.163c1.62-2.477,4.4-4.021,7.406-4.021c2.142,0,4.148,0.779,5.728,2.136l4.554-2.276l5.981,2.393
			v-6.687H32.108v12.603l13.307-5.324L48.359,80.163z"/>
		<path fill="none" d="M51.196,81.297l2.465,0.986l-0.036-0.071l4.864-2.433c-0.828-0.436-1.755-0.68-2.725-0.68
			C53.97,79.1,52.302,79.934,51.196,81.297z"/>
		<polygon opacity="0.8" fill="#4285F4" points="74.985,82.763 66.182,79.243 57.234,83.716 60.749,85.12 59.651,87.866 
			45.415,82.173 29.151,88.677 29.151,101.278 74.985,101.278 		"/>
		<polygon opacity="0.8" fill="#4285F4" points="83.261,97.27 83.261,109.098 83.261,112.055 98.046,97.27 95.089,97.27 		"/>
		<g>
			<rect x="77.347" y="83.536" fill="none" width="13.306" height="2.956"/>
			<rect x="77.347" y="76.143" fill="none" width="13.306" height="2.957"/>
			<rect x="77.347" y="68.75" fill="none" width="13.306" height="2.958"/>
			<rect x="77.942" y="54.241" fill="none" width="13.306" height="2.956"/>
			<rect x="77.347" y="90.928" fill="none" width="13.306" height="2.957"/>
			<polygon fill="none" points="74.985,82.763 74.985,80.578 74.985,68.75 29.151,68.75 29.151,86.492 29.151,88.677 
				29.151,101.278 74.985,101.278 			"/>
			<polygon fill="none" points="44.82,67.7 90.653,67.7 91.249,61.634 45.415,61.634 			"/>
			<path fill="none" d="M24.121,97.27v11.828h59.14V97.27h11.828V23.344H24.121 M94.499,86.921 M84.924,77.781 M29.151,88.677
				v-2.185V68.75h45.833v11.828v2.185v18.516H29.151V88.677z M45.415,68.75l0.595-4.588 M90.653,70.656v2.958 M90.653,67.7H44.82
				l0.595-6.066h45.833L90.653,67.7z M91.249,57.197H77.942v-2.956h13.306V57.197z M90.653,93.885H77.347v-2.957h13.306V93.885z
				 M90.653,86.492H77.347v-2.956h13.306V86.492z M90.653,79.1H77.347v-2.957h13.306V79.1z M90.653,71.708H77.347V68.75h13.306
				V71.708z"/>
			<path fill="#333333" d="M24.121,23.344h70.968V97.27h2.957V20.388H21.164v76.951l2.957-0.069 M84.924,77.781 M94.499,86.921
				 M21.164,97.27v14.785h62.097v-2.957h-59.14V97.27"/>
		</g>
		<path fill="#333333" d="M54.286,83.536l11.828-5.914l8.871,2.956V68.75H29.151v17.742l16.264-5.914L54.286,83.536z M53.625,82.212
			l0.036,0.071l-2.465-0.986c1.106-1.363,2.774-2.197,4.569-2.197c0.97,0,1.897,0.244,2.725,0.68L53.625,82.212z M32.108,71.708
			h39.919v6.687l-5.981-2.393l-4.554,2.276c-1.579-1.356-3.585-2.136-5.728-2.136c-3.006,0-5.786,1.544-7.406,4.021l-2.944-1.177
			l-13.307,5.324V71.708z"/>
		<polygon fill="#333333" points="59.651,87.866 60.749,85.12 57.234,83.716 66.182,79.243 74.985,82.763 74.985,80.578 
			66.114,77.622 54.286,83.536 45.415,80.578 29.151,86.492 29.151,88.677 45.415,82.173 		"/>
		<rect x="77.347" y="68.75" fill="#333333" width="13.306" height="2.958"/>
		<rect x="77.347" y="76.143" fill="#333333" width="13.306" height="2.957"/>
		<rect x="77.347" y="83.536" fill="#333333" width="13.306" height="2.956"/>
		<rect x="77.347" y="90.928" fill="#333333" width="13.306" height="2.957"/>
		<polygon fill="#333333" points="29.151,56.453 33.587,56.453 33.587,63.846 36.544,63.846 36.544,56.453 40.979,56.453 
			40.979,53.496 29.151,53.496 		"/>
		<rect x="45.415" y="53.496" fill="#333333" width="45.833" height="2.957"/>
		<rect x="45.415" y="60.889" fill="#333333" width="45.833" height="2.957"/>
	</g>
	<rect x="29.151" y="27.43" opacity="0.8" fill="#4285F4" width="62.097" height="21.428"/>
	
		<text transform="matrix(1.3 0 0 1 40.98 44.6543)" fill="#333333" font-family="'jf-jinxuan-fresh-Medium-B5pc-H'" font-size="16.2743">PDF</text>
</g>
</svg>
