<?xml version="1.0" encoding="utf-8"?>
<!-- Generator: Adobe Illustrator 16.0.3, SVG Export Plug-In . SVG Version: 6.00 Build 0)  -->
<!DOCTYPE svg PUBLIC "-//W3C//DTD SVG 1.1//EN" "http://www.w3.org/Graphics/SVG/1.1/DTD/svg11.dtd">
<svg version="1.1" id="圖層_1" xmlns="http://www.w3.org/2000/svg" xmlns:xlink="http://www.w3.org/1999/xlink" x="0px" y="0px"
	 width="201.146px" height="195.868px" viewBox="0 0 201.146 195.868" enable-background="new 0 0 201.146 195.868"
	 xml:space="preserve">
<text transform="matrix(1 0 0 1 84.5859 186.4863)" font-family="'jf-jinxuan-fresh-Medium-B5pc-H'" font-size="21">公民</text>
<circle fill="none" stroke="#7A7A7A" stroke-width="3" stroke-miterlimit="10" cx="99.514" cy="89.066" r="75.667"/>
<g>
	<g>
		<g>
			<g>
				<path fill="#333333" d="M114.594,95.132l-2.002,3.105c6.119,3.945,9.772,10.63,9.772,17.879v10.119H99.415l13.463-23.08
					l-3.193-1.86l-11.33,19.429l-11.333-19.428l-3.193,1.861l13.465,23.078h-22.95v-10.119c0-7.251,3.653-13.935,9.772-17.88
					l-2.002-3.106c-7.179,4.633-11.464,12.476-11.464,20.986v13.813h55.406v-13.813C126.058,107.605,121.772,99.763,114.594,95.132z
					"/>
				<path fill="#333333" d="M77.868,78.29c0,11.244,9.145,20.389,20.389,20.389c11.243,0,20.389-9.145,20.389-20.389
					c0-11.242-9.146-20.389-20.389-20.389C87.013,57.901,77.868,67.048,77.868,78.29z M114.952,78.29
					c0,9.205-7.491,16.695-16.695,16.695c-9.206,0-16.696-7.49-16.696-16.695c0-9.207,7.49-16.695,16.696-16.695
					C107.461,61.595,114.952,69.083,114.952,78.29z"/>
				<path fill="#333333" d="M73.308,85.094c-1.527,0.437-3.075,0.658-4.599,0.658c-9.205,0-16.696-7.491-16.696-16.696
					c0-9.206,7.491-16.695,16.696-16.695c5.025,0,9.735,2.234,12.924,6.133l2.861-2.34c-3.895-4.758-9.648-7.487-15.787-7.487
					c-11.243,0-20.389,9.147-20.389,20.39c0,11.243,9.146,20.389,20.389,20.389c1.867,0,3.755-0.27,5.612-0.799L73.308,85.094z"/>
				<path fill="#333333" d="M44.796,106.882c0-7.251,3.653-13.936,9.771-17.88l-2.002-3.106
					c-7.178,4.633-11.463,12.475-11.463,20.986v13.812h24.009V117H44.796V106.882z"/>
				<path fill="#333333" d="M148.196,69.056c0-11.242-9.146-20.389-20.389-20.389c-6.137,0-11.89,2.729-15.785,7.488l2.861,2.34
					c3.189-3.9,7.9-6.135,12.924-6.135c9.205,0,16.696,7.489,16.696,16.695c0,9.205-7.491,16.696-16.696,16.696
					c-1.523,0-3.071-0.221-4.599-0.657l-1.018,3.549c1.858,0.533,3.747,0.805,5.616,0.805
					C139.05,89.445,148.196,80.3,148.196,69.056z"/>
				<path fill="#333333" d="M144.144,85.898l-2.002,3.106c6.118,3.944,9.771,10.629,9.771,17.877V117h-18.468l0,0h-3.694v3.694
					h25.856v-13.813C155.607,98.37,151.322,90.528,144.144,85.898z"/>
			</g>
		</g>
	</g>
	<polyline opacity="0.8" fill="#4285F4" points="87.022,101.296 98.355,120.724 109.685,101.295 	"/>
</g>
</svg>
