<?xml version="1.0" encoding="utf-8"?>
<!-- Generator: Adobe Illustrator 16.0.3, SVG Export Plug-In . SVG Version: 6.00 Build 0)  -->
<!DOCTYPE svg PUBLIC "-//W3C//DTD SVG 1.1//EN" "http://www.w3.org/Graphics/SVG/1.1/DTD/svg11.dtd">
<svg version="1.1" id="圖層_1" xmlns="http://www.w3.org/2000/svg" xmlns:xlink="http://www.w3.org/1999/xlink" x="0px" y="0px"
	 width="125.443px" height="104.356px" viewBox="0 0 125.443 104.356" enable-background="new 0 0 125.443 104.356"
	 xml:space="preserve">
<g>
	<path opacity="0.8" fill="#4285F4" d="M62.456,99.014c-3.9,0-7.455-1.893-9.632-5.037c-2.002,1.478-4.414,2.273-6.946,2.273
		c-2.266,0-4.443-0.645-6.344-1.87c-1.091,0.325-2.206,0.489-3.327,0.489c-6.475,0-11.743-5.268-11.743-11.742
		c0-1.458,0.269-2.88,0.8-4.238c-1.412-1.98-2.182-4.369-2.182-6.814c0-5.224,3.48-9.804,8.41-11.262
		c0.776-5.77,5.696-10.152,11.623-10.152c1.07,0,2.137,0.149,3.177,0.447c1.825-2.027,4.443-3.21,7.184-3.21
		c2.694,0,5.235,1.118,7.048,3.049c2.537-1.976,5.626-3.049,8.839-3.049c7.481,0,13.62,5.598,14.407,12.924
		c4.918,1.465,8.389,6.038,8.389,11.253c0,3.167-1.264,6.161-3.498,8.363c0.487,1.308,0.734,2.672,0.734,4.07
		c0,6.476-5.268,11.742-11.743,11.742c-2.148,0-4.203-0.571-6.02-1.667C69.415,97.381,66.078,99.014,62.456,99.014z"/>
	<g>
		<path fill="#333333" d="M77.653,72.764v2.764c4.718,0,8.59,3.66,8.945,8.289h-0.002c0.016,0.23,0.037,0.459,0.037,0.691
			c0,4.951-4.028,8.98-8.98,8.98c-2.012,0-3.919-0.659-5.517-1.906l-0.008,0.012c-2.181-1.696-3.484-4.313-3.484-7.086h-2.763
			c0,3.777,1.834,7.348,4.908,9.549l0.021-0.029c2.009,1.45,4.363,2.223,6.843,2.223c6.475,0,11.743-5.267,11.743-11.742
			C89.396,78.033,84.128,72.764,77.653,72.764z"/>
		<path fill="#333333" d="M51.944,77.313c-1.288,1.18-2.874,1.943-4.573,2.228c-0.925-2.885-2.925-5.351-5.699-6.813l-1.288,2.445
			c2.962,1.562,4.802,4.607,4.802,7.953c0,3.876-2.474,7.176-5.923,8.433c-0.486,0.175-0.979,0.308-1.475,0.398
			c-0.033,0.007-0.066,0.01-0.1,0.016c-0.493,0.085-0.988,0.133-1.482,0.133c-4.951,0-8.979-4.029-8.979-8.979
			c0-1.33,0.294-2.621,0.875-3.845l-2.497-1.185c-0.757,1.596-1.142,3.287-1.142,5.029c0,6.475,5.268,11.742,11.743,11.742
			c0.365,0,0.729-0.021,1.092-0.055c0.192-0.019,0.378-0.05,0.568-0.076c0.156-0.022,0.311-0.043,0.467-0.072
			c0.251-0.047,0.499-0.105,0.745-0.168c0.083-0.02,0.165-0.039,0.246-0.063c0.278-0.076,0.55-0.162,0.818-0.26
			c0.027-0.011,0.055-0.017,0.083-0.026l-0.001-0.005c4.5-1.644,7.727-5.956,7.727-11.018c0-0.295-0.039-0.58-0.06-0.871
			c2.198-0.381,4.252-1.376,5.92-2.905L51.944,77.313z"/>
		<path fill="#333333" d="M96.303,17.504l3.316,2.486l1.658-2.211l-6.355-4.767l-6.355,4.767l1.658,2.211l3.316-2.486v9.67
			c0,3.81-3.099,6.908-6.908,6.908h-5.526c-4.371,0-8.069,2.918-9.263,6.906l-1.978-0.002l-0.051,2.764l1.622,0.002l0,0v4.308
			c-0.678-0.097-1.366-0.162-2.073-0.162c-3.604,0-7.043,1.36-9.731,3.817l-0.035-0.036c-3.011,2.743-4.74,6.653-4.74,10.724
			c0,8,6.507,14.507,14.506,14.507v-2.763c-6.475,0-11.743-5.269-11.743-11.744c0-3.209,1.334-6.287,3.657-8.498l0.019,0.021
			c2.206-2.105,5.07-3.265,8.066-3.265c0.709,0,1.4,0.07,2.073,0.19v5.335c0,3.81-3.099,6.908-6.908,6.908h-1.381v2.763h1.381
			c5.332,0,9.671-4.339,9.671-9.671v-4.48c3.938,1.774,6.715,5.651,6.884,10.266l2.76-0.1c-0.224-6.137-4.18-11.217-9.644-13.137
			v-4.982c0-3.808,3.099-6.907,6.907-6.907h5.526c5.332,0,9.67-4.34,9.67-9.671V17.504L96.303,17.504z"/>
		<rect x="79.725" y="67.238" fill="#333333" width="4.146" height="2.764"/>
		<path fill="#333333" d="M65.201,42.439l1.393-2.387c-0.998-0.583-1.843-1.412-2.445-2.399l-2.358,1.438
			C62.63,40.469,63.809,41.627,65.201,42.439z"/>
		<path fill="#333333" d="M101.495,48.146l-2.666,0.72c0.157,0.585,0.237,1.189,0.237,1.795v1.966h2.763V50.66
			C101.83,49.811,101.718,48.964,101.495,48.146z"/>
		<rect x="60.383" y="22.018" fill="#333333" width="2.764" height="4.146"/>
		<path fill="#333333" d="M60.383,34.082c0,0.144,0.003,0.287,0.01,0.431l2.761-0.121l-0.007-4.084h-2.764V34.082z"/>
		<rect x="86.419" y="40.989" fill="#333333" width="4.145" height="2.763"/>
		<rect x="88.014" y="67.238" fill="#333333" width="4.145" height="2.764"/>
		<path fill="#333333" d="M95.465,66.39l1.331,2.421c1.412-0.776,2.621-1.903,3.497-3.259l-2.324-1.498
			C97.342,65.023,96.477,65.832,95.465,66.39z"/>
		<rect x="78.129" y="40.989" fill="#333333" width="4.145" height="2.763"/>
		<path fill="#333333" d="M99.141,43.982c-1.119-1.171-2.52-2.049-4.053-2.538l-0.842,2.63c1.095,0.351,2.097,0.979,2.899,1.816
			L99.141,43.982z"/>
		<path fill="#333333" d="M99.066,60.331c0,0.163-0.005,0.324-0.018,0.487l2.757,0.191c0.015-0.225,0.023-0.451,0.023-0.679v-3.561
			h-2.763V60.331z"/>
		<polygon fill="#333333" points="60.383,17.504 60.383,17.874 63.147,17.874 63.147,17.504 66.462,19.99 68.12,17.779 
			61.765,13.013 55.41,17.779 57.068,19.99 		"/>
		<path fill="#333333" d="M28.608,42.371v-2.764c0-3.047,2.478-5.525,5.526-5.525h8.29c3.047,0,5.526,2.479,5.526,5.525v20.724
			h2.763V39.607c0-4.571-3.718-8.289-8.289-8.289h-1.382v-2.763h-2.763v2.763h-4.145c-4.571,0-8.289,3.718-8.289,8.289v2.764
			c0,1.523-1.239,2.763-2.763,2.763h-2.763l2.486-3.315l-2.21-1.657l-4.766,6.354l4.766,6.354l2.21-1.657l-2.486-3.315h2.763
			C26.13,47.897,28.608,45.419,28.608,42.371z"/>
		<rect x="38.279" y="53.424" fill="#333333" width="2.763" height="4.145"/>
		<rect x="38.279" y="61.713" fill="#333333" width="2.763" height="4.144"/>
		<rect x="38.279" y="36.845" fill="#333333" width="2.763" height="4.145"/>
		<rect x="38.279" y="45.134" fill="#333333" width="2.763" height="4.145"/>
		<rect x="38.279" y="20.267" fill="#333333" width="2.763" height="4.145"/>
		<polygon fill="#333333" points="39.661,16.467 44.358,19.99 46.016,17.779 39.661,13.013 33.306,17.779 34.963,19.99 		"/>
	</g>
</g>
</svg>
