<?xml version="1.0" encoding="utf-8"?>
<!-- Generator: Adobe Illustrator 16.0.3, SVG Export Plug-In . SVG Version: 6.00 Build 0)  -->
<!DOCTYPE svg PUBLIC "-//W3C//DTD SVG 1.1//EN" "http://www.w3.org/Graphics/SVG/1.1/DTD/svg11.dtd">
<svg version="1.1" id="圖層_1" xmlns="http://www.w3.org/2000/svg" xmlns:xlink="http://www.w3.org/1999/xlink" x="0px" y="0px"
	 width="187.015px" height="207.942px" viewBox="0 0 187.015 207.942" enable-background="new 0 0 187.015 207.942"
	 xml:space="preserve">
<g>
	<path d="M76.673,187.668l-0.357-0.65c4.094-2.457,7.055-5.984,8.629-9.721l2.226,1.028c-0.126,0.272-0.273,0.546-0.441,0.819
		c3.233,3.38,6.782,5.039,9.007,5.689l-1.365,2.373c-2.1-0.735-6.026-4.053-8.146-7.266
		C84.106,183.092,80.495,186.031,76.673,187.668z M87.192,195.227h7.202v0.945H77.366v-0.945h3.317v-8.461h1.848v8.461h2.729
		v-11.842h1.932v5.103h4.976v0.944h-4.976V195.227z"/>
	<path d="M116.549,194.03l-1.071,2.163c-1.953-0.42-5.732-2.016-7.685-4.283l0.021,5.102h-1.848v-4.85
		c-1.491,1.512-4.724,3.275-8.314,4.031l-0.252-0.715c2.457-0.86,5.417-2.288,7.265-4.388h-6.656v-0.944h7.958v-1.471h-5.879v-0.902
		h5.879v-1.344h-7.055v-0.945h5.186c-0.483-0.818-1.092-1.68-1.68-2.436l0.21-0.272h-4.304v-0.944h3.17
		c-0.315-0.84-1.05-2.205-1.722-3.381l0.609-0.482c1.092,0.84,2.247,2.016,2.897,2.96l-1.428,0.903h2.394v-4.41h1.806v4.41h1.848
		v-4.41h1.806v4.41h0.63c0.567-0.924,1.155-2.709,1.512-3.947l1.974,0.965c-0.588,0.903-1.554,2.143-2.436,2.982h4.199v0.944h-5.753
		l1.407,0.672c-0.588,0.756-1.386,1.491-2.058,2.036h5.879v0.945h-7.307v1.344h6.152v0.902h-6.131v1.471h8.083v0.944h-7.58
		C110.943,193.022,115.037,193.842,116.549,194.03z M105.925,184.813l-0.819,0.672h2.939c0.378-0.713,0.861-1.848,1.134-2.708
		h-5.753C104.329,183.322,105.253,184.057,105.925,184.813z"/>
</g>
<circle fill="none" stroke="#0062A3" stroke-width="4" stroke-miterlimit="10" cx="96.414" cy="89.247" r="75.667"/>
<g>
	<path fill="none" d="M84.968,54.903l-33.951,9.434v72.654h33.951V54.903z M61.626,126.382h-4.244v-4.244h4.244V126.382z
		 M61.626,117.894h-4.244v-4.244h4.244V117.894z M61.626,109.405h-4.244v-4.244h4.244V109.405z M61.626,100.918h-4.244v-4.244h4.244
		V100.918z M61.626,92.431h-4.244v-4.244h4.244V92.431z M61.626,83.942h-4.244v-4.244h4.244V83.942z M61.626,75.454h-4.244v-4.243
		h4.244V75.454z M70.114,126.382h-4.244v-4.244h4.244V126.382z M70.114,117.894h-4.244v-4.244h4.244V117.894z M70.114,109.405
		h-4.244v-4.244h4.244V109.405z M70.114,100.918h-4.244v-4.244h4.244V100.918z M70.114,92.431h-4.244v-4.244h4.244V92.431z
		 M70.114,83.942h-4.244v-4.244h4.244V83.942z M70.114,75.454h-4.244v-4.243h4.244V75.454z M70.114,66.967h-4.244v-4.243h4.244
		V66.967z M78.602,126.382h-4.244v-4.244h4.244V126.382z M78.602,117.894h-4.244v-4.244h4.244V117.894z M78.602,109.405h-4.244
		v-4.244h4.244V109.405z M78.602,100.918h-4.244v-4.244h4.244V100.918z M78.602,92.431h-4.244v-4.244h4.244V92.431z M78.602,83.942
		h-4.244v-4.244h4.244V83.942z M78.602,75.454h-4.244v-4.243h4.244V75.454z M78.602,66.967h-4.244v-4.243h4.244V66.967z"/>
	<polyline fill="none" points="135.895,77.577 135.895,136.991 138.016,136.991 138.016,141.235 135.895,141.235 93.456,141.235 
		89.211,141.235 46.773,141.235 44.651,141.235 44.651,136.991 46.773,136.991 46.773,77.577 	"/>
	<rect x="89.212" y="77.577" fill="none" width="4.244" height="59.414"/>
	<path opacity="0.8" fill="#4285F4" d="M93.456,37.261v36.072v4.244v59.414h42.438V77.577v-4.244V37.261 M121.041,45.747h4.244
		v4.244h-4.244V45.747z M121.041,54.235h4.244v4.244h-4.244V54.235z M121.041,62.724h4.244v4.243h-4.244V62.724z M121.041,71.211
		h4.244v4.243h-4.244V71.211z M121.041,79.698h4.244v4.244h-4.244V79.698z M121.041,88.187h4.244v4.244h-4.244V88.187z
		 M121.041,96.674h4.244v4.244h-4.244V96.674z M121.041,105.161h4.244v4.244h-4.244V105.161z M121.041,113.649h4.244v4.244h-4.244
		V113.649z M121.041,122.138h4.244v4.244h-4.244V122.138z M112.553,45.747h4.244v4.244h-4.244V45.747z M112.553,54.235h4.244v4.244
		h-4.244V54.235z M112.553,62.724h4.244v4.243h-4.244V62.724z M112.553,71.211h4.244v4.243h-4.244V71.211z M112.553,79.698h4.244
		v4.244h-4.244V79.698z M112.553,88.187h4.244v4.244h-4.244V88.187z M112.553,96.674h4.244v4.244h-4.244V96.674z M112.553,105.161
		h4.244v4.244h-4.244V105.161z M112.553,113.649h4.244v4.244h-4.244V113.649z M112.553,122.138h4.244v4.244h-4.244V122.138z
		 M104.065,45.747h4.244v4.244h-4.244V45.747z M104.065,54.235h4.244v4.244h-4.244V54.235z M104.065,62.724h4.244v4.243h-4.244
		V62.724z M104.065,71.211h4.244v4.243h-4.244V71.211z M104.065,79.698h4.244v4.244h-4.244V79.698z M104.065,88.187h4.244v4.244
		h-4.244V88.187z M104.065,96.674h4.244v4.244h-4.244V96.674z M104.065,105.161h4.244v4.244h-4.244V105.161z M104.065,113.649h4.244
		v4.244h-4.244V113.649z M104.065,122.138h4.244v4.244h-4.244V122.138z"/>
	<rect x="135.895" y="136.991" fill="#333333" width="2.122" height="4.244"/>
	<path fill="#333333" d="M46.773,77.577v59.414h-2.122v4.244h2.122h42.438h4.245v-4.244h-4.244V77.577l0,0v-4.244l0,0v-24.01
		L46.773,61.11v12.223 M135.895,73.333v4.244 M51.017,64.337l33.951-9.434v82.088H51.017V64.337z"/>
	<rect x="93.456" y="136.991" fill="#333333" width="42.438" height="4.244"/>
	<rect x="104.065" y="45.747" fill="#333333" width="4.244" height="4.244"/>
	<rect x="112.553" y="45.747" fill="#333333" width="4.244" height="4.244"/>
	<rect x="121.041" y="45.747" fill="#333333" width="4.244" height="4.244"/>
	<rect x="104.065" y="54.235" fill="#333333" width="4.244" height="4.244"/>
	<rect x="112.553" y="54.235" fill="#333333" width="4.244" height="4.244"/>
	<rect x="121.041" y="54.235" fill="#333333" width="4.244" height="4.244"/>
	<rect x="104.065" y="62.724" fill="#333333" width="4.244" height="4.243"/>
	<rect x="112.553" y="62.724" fill="#333333" width="4.244" height="4.243"/>
	<rect x="121.041" y="62.724" fill="#333333" width="4.244" height="4.243"/>
	<rect x="104.065" y="71.211" fill="#333333" width="4.244" height="4.243"/>
	<rect x="112.553" y="71.211" fill="#333333" width="4.244" height="4.243"/>
	<rect x="121.041" y="71.211" fill="#333333" width="4.244" height="4.243"/>
	<rect x="104.065" y="79.698" fill="#333333" width="4.244" height="4.244"/>
	<rect x="112.553" y="79.698" fill="#333333" width="4.244" height="4.244"/>
	<rect x="121.041" y="79.698" fill="#333333" width="4.244" height="4.244"/>
	<rect x="104.065" y="88.187" fill="#333333" width="4.244" height="4.244"/>
	<rect x="112.553" y="88.187" fill="#333333" width="4.244" height="4.244"/>
	<rect x="121.041" y="88.187" fill="#333333" width="4.244" height="4.244"/>
	<rect x="104.065" y="96.674" fill="#333333" width="4.244" height="4.244"/>
	<rect x="112.553" y="96.674" fill="#333333" width="4.244" height="4.244"/>
	<rect x="121.041" y="96.674" fill="#333333" width="4.244" height="4.244"/>
	<rect x="104.065" y="105.161" fill="#333333" width="4.244" height="4.244"/>
	<rect x="112.553" y="105.161" fill="#333333" width="4.244" height="4.244"/>
	<rect x="121.041" y="105.161" fill="#333333" width="4.244" height="4.244"/>
	<rect x="104.065" y="113.649" fill="#333333" width="4.244" height="4.244"/>
	<rect x="112.553" y="113.649" fill="#333333" width="4.244" height="4.244"/>
	<rect x="121.041" y="113.649" fill="#333333" width="4.244" height="4.244"/>
	<rect x="104.065" y="122.138" fill="#333333" width="4.244" height="4.244"/>
	<rect x="112.553" y="122.138" fill="#333333" width="4.244" height="4.244"/>
	<rect x="121.041" y="122.138" fill="#333333" width="4.244" height="4.244"/>
	<rect x="65.871" y="62.724" fill="#333333" width="4.244" height="4.243"/>
	<rect x="74.358" y="62.724" fill="#333333" width="4.244" height="4.243"/>
	<rect x="57.383" y="71.211" fill="#333333" width="4.244" height="4.243"/>
	<rect x="65.871" y="71.211" fill="#333333" width="4.244" height="4.243"/>
	<rect x="74.358" y="71.211" fill="#333333" width="4.244" height="4.243"/>
	<rect x="57.383" y="79.698" fill="#333333" width="4.244" height="4.244"/>
	<rect x="65.871" y="79.698" fill="#333333" width="4.244" height="4.244"/>
	<rect x="74.358" y="79.698" fill="#333333" width="4.244" height="4.244"/>
	<rect x="57.383" y="88.187" fill="#333333" width="4.244" height="4.244"/>
	<rect x="65.871" y="88.187" fill="#333333" width="4.244" height="4.244"/>
	<rect x="74.358" y="88.187" fill="#333333" width="4.244" height="4.244"/>
	<rect x="57.383" y="96.674" fill="#333333" width="4.244" height="4.244"/>
	<rect x="65.871" y="96.674" fill="#333333" width="4.244" height="4.244"/>
	<rect x="74.358" y="96.674" fill="#333333" width="4.244" height="4.244"/>
	<rect x="57.383" y="105.161" fill="#333333" width="4.244" height="4.244"/>
	<rect x="65.871" y="105.161" fill="#333333" width="4.244" height="4.244"/>
	<rect x="74.358" y="105.161" fill="#333333" width="4.244" height="4.244"/>
	<rect x="57.383" y="113.649" fill="#333333" width="4.244" height="4.244"/>
	<rect x="65.871" y="113.649" fill="#333333" width="4.244" height="4.244"/>
	<rect x="74.358" y="113.649" fill="#333333" width="4.244" height="4.244"/>
	<rect x="57.383" y="122.138" fill="#333333" width="4.244" height="4.244"/>
	<rect x="65.871" y="122.138" fill="#333333" width="4.244" height="4.244"/>
	<rect x="74.358" y="122.138" fill="#333333" width="4.244" height="4.244"/>
</g>
</svg>
