<?xml version="1.0" encoding="utf-8"?>
<!-- Generator: Adobe Illustrator 16.0.3, SVG Export Plug-In . SVG Version: 6.00 Build 0)  -->
<!DOCTYPE svg PUBLIC "-//W3C//DTD SVG 1.1//EN" "http://www.w3.org/Graphics/SVG/1.1/DTD/svg11.dtd">
<svg version="1.1" id="圖層_1" xmlns="http://www.w3.org/2000/svg" xmlns:xlink="http://www.w3.org/1999/xlink" x="0px" y="0px"
	 width="158.75px" height="189.31px" viewBox="0 0 158.75 189.31" enable-background="new 0 0 158.75 189.31" xml:space="preserve">
<g>
	<path d="M50.29,175.792c-1.071,4.031-3.359,7.433-7.559,9.596l-0.42-0.651c3.611-2.751,4.913-5.585,5.564-8.419l-4.556,0.021
		v-0.944l4.493-0.021l0.609-0.462L50.29,175.792z M61.229,182.868l-1.722,2.268c-1.617-1.239-4.535-3.213-6.32-9.05v8.126
		c0,2.645-2.184,3.254-6.005,0.924l0.252-0.735c3.338,0.756,3.779,0.546,3.779-0.588v-11.274h-5.249v-1.051h7.223v1.639
		c0.357,1.28,0.798,2.352,1.281,3.296c1.008-0.86,2.289-2.184,3.422-4.095l1.974,1.555c-1.701,1.49-3.569,2.666-4.955,3.316
		C56.946,180.685,59.654,181.965,61.229,182.868z M53.901,170.731c-1.68-1.07-3.8-2.204-5.795-3.044l0.21-0.756
		c1.932,0.272,5.207,1.071,6.614,1.764L53.901,170.731z"/>
	<path d="M71.227,171.803h-7.853v-0.944h3.863c-0.588-1.155-1.323-2.415-1.869-3.255l0.588-0.462c1.05,0.734,2.247,1.89,2.981,2.877
		l-1.197,0.84h3.506L71.227,171.803z M64.298,174.028h6.257v0.882h-6.257V174.028z M70.492,177.618h-6.194v-0.881h6.194V177.618z
		 M64.382,179.781h6.173v6.551h-1.659v-1.155h-2.897v1.471h-1.617V179.781z M65.999,184.253h2.876v-3.548h-2.876V184.253z
		 M80.444,186.479c-2.247-0.945-2.415-5.606-2.415-12.577v-4.431h-2.876v6.51h2.415v0.944h-2.415v9.806h-1.89v-9.806h-2.268v-0.944
		h2.268v-6.51h-2.289v-0.944h8.965l-0.063,5.396c-0.084,6.656,0.42,9.953,0.882,10.289c0.441,0.314,0.504-0.357,0.462-3.443h0.756
		C83.405,185.976,81.851,187.067,80.444,186.479z"/>
	<path d="M84.626,178.962l-0.315-0.692c2.058-1.05,3.737-2.142,4.493-4.767h-3.821v-0.944h4.052c0.105-0.63,0.189-1.344,0.21-2.142
		h-1.533c-0.588,0.798-1.218,1.512-1.785,1.994l-0.525-0.524c0.882-1.323,1.638-3.191,1.974-4.871l2.016,0.524
		c-0.252,0.588-0.63,1.26-1.05,1.932h6.005v0.945h-3.17c-0.042,0.777-0.105,1.49-0.231,2.142h3.863v0.944h-4.115
		c-0.063,0.211-0.147,0.42-0.21,0.631c1.533,0.482,3.044,1.154,4.073,1.826l-1.113,1.658c-0.84-0.818-2.016-1.764-3.338-2.688
		C89.015,176.946,87.125,178.122,84.626,178.962z M87.923,177.954h11.842v8.63h-1.848v-1.344h-8.146v1.448h-1.848V177.954z
		 M89.771,180.957h8.146v-2.058h-8.146V180.957z M89.771,184.296h8.146v-2.395h-8.146V184.296z M102.2,169.095v7.999h-1.806v-1.428
		h-3.38v1.638h-1.806v-8.209H102.2z M100.395,174.722v-4.683h-3.38v4.683H100.395z"/>
	<path d="M123.872,169.64v0.945h-15.033v4.619c0,6.173-1.071,9.238-3.128,11.548l-0.609-0.462c1.428-2.373,1.89-5.837,1.89-11.212
		v-5.438h8.797c-1.092-0.734-2.184-1.364-3.233-1.91l0.21-0.734c1.491,0.23,3.275,0.672,4.724,1.364l-0.693,1.28H123.872z
		 M117.048,182.448h6.803v0.944h-6.803v3.233h-1.806v-3.233h-6.656v-0.944h6.656v-1.491h-4.913v-6.089h4.913v-1.428h-5.879v-0.945
		h5.879v-1.406h1.806v1.406h5.942v0.945h-5.942v1.428h4.934v6.089h-4.934V182.448z M115.243,175.813h-3.149v1.596h3.149V175.813z
		 M115.243,178.354h-3.149v1.659h3.149V178.354z M117.048,177.409h3.17v-1.596h-3.17V177.409z M117.048,180.013h3.17v-1.659h-3.17
		V180.013z"/>
</g>
<circle fill="#FFFFFF" stroke="#99CE66" stroke-width="3" stroke-miterlimit="10" cx="79.573" cy="78.945" r="75.667"/>
<g>
	<path fill="#99CE66" d="M106.297,65.187c0.949-4.885,0.48-11.789,0.029-16.068c-16.871-5.629-44.198-7.967-66.912,7.645
		c-0.493,5.495-0.237,11.207,0.714,16.932c4.067-3.002,9.97-7.095,13.951-8.713C74.142,53.817,101.819,60.28,106.297,65.187z"/>
	<g>
		<path fill="#F7EB37" d="M53.887,64.896c0.069-0.041,0.142-0.074,0.211-0.113c-3.98,1.618-9.883,5.71-13.949,8.713
			c3.628,21.813,17.518,43.781,39.959,54.396c5.047-2.568,9.642-5.678,13.795-9.156c-8.363-3.307-13.662-7.557-13.662-7.557
			C63.174,101.771,54.734,81.304,53.887,64.896z"/>
		<path fill="#0062A3" d="M121.05,56.771c-2.224-2.46-7.516-5.455-14.706-7.854c0.452,4.281,0.92,11.183-0.029,16.07
			c0.004,0.004,0.011,0.008,0.016,0.014c1,12.346-7.971,35.77-26.09,46.178c0,0,5.299,4.25,13.662,7.557
			C114.888,101.161,124.353,73.948,121.05,56.771z"/>
	</g>
</g>
</svg>
