<?xml version="1.0" encoding="utf-8"?>
<!-- Generator: Adobe Illustrator 16.0.3, SVG Export Plug-In . SVG Version: 6.00 Build 0)  -->
<!DOCTYPE svg PUBLIC "-//W3C//DTD SVG 1.1//EN" "http://www.w3.org/Graphics/SVG/1.1/DTD/svg11.dtd">
<svg version="1.1" id="圖層_1" xmlns="http://www.w3.org/2000/svg" xmlns:xlink="http://www.w3.org/1999/xlink" x="0px" y="0px"
	 width="201.146px" height="195.868px" viewBox="0 0 201.146 195.868" enable-background="new 0 0 201.146 195.868"
	 xml:space="preserve">
<g>
	<path d="M85.929,180.713l-0.441-0.631c2.688-2.54,4.514-5.627,5.564-10.099l2.226,0.882
		C91.892,174.707,89.289,178.508,85.929,180.713z M103.104,186.738l-2.247,1.218c-0.357-0.966-0.84-2.016-1.365-3.107
		c-3.443,1.155-8.125,2.016-11.485,2.352l-0.714-2.456c0.798,0.021,1.68,0.021,2.604,0c1.491-2.352,2.834-5.795,3.611-8.756
		l2.394,0.924c-1.218,2.834-3.128,5.795-4.829,7.811c2.792-0.105,5.774-0.336,8.021-0.672c-0.567-1.113-1.218-2.205-1.89-3.275
		l0.63-0.525C100.06,182.35,101.928,184.681,103.104,186.738z M97.708,170.928h-3.38v-0.944h4.157
		c0.693,4.22,3.149,6.677,6.152,8.21l-1.722,2.372C100.27,178.57,98.422,175.61,97.708,170.928z"/>
	<path d="M121.06,187.242c-1.785-1.092-3.821-3.191-4.976-7.537h-5.123v5.521c1.974-0.357,4.094-0.818,5.564-1.302l0.273,0.714
		c-2.247,1.302-7.37,3.086-9.217,3.527l-0.693-2.352c0.546-0.042,1.302-0.146,2.142-0.273v-15.348h14.13v5.459h-5.9
		c0.126,1.154,0.294,2.184,0.525,3.107h6.887v0.945h-6.635c0.777,2.624,2.016,4.22,3.464,5.332c2.142,1.639,2.121,0.567,1.974-3.023
		h0.756C126.057,187.158,124.902,189.572,121.06,187.242z M110.96,174.707h10.309v-3.568H110.96V174.707z M115.874,178.76
		c-0.21-0.945-0.378-1.974-0.504-3.107h-4.409v3.107H115.874z"/>
</g>
<circle fill="none" stroke="#7A7A7A" stroke-width="3" stroke-miterlimit="10" cx="99.514" cy="89.066" r="75.667"/>
<g>
	<g>
		<g>
			<g>
				<path fill="#333333" d="M114.594,95.132l-2.002,3.105c6.119,3.945,9.772,10.63,9.772,17.879v10.119H99.415l13.463-23.08
					l-3.193-1.86l-11.33,19.429l-11.333-19.428l-3.193,1.861l13.465,23.078h-22.95v-10.119c0-7.251,3.653-13.935,9.772-17.88
					l-2.002-3.106c-7.179,4.633-11.464,12.476-11.464,20.986v13.813h55.406v-13.813C126.058,107.605,121.772,99.763,114.594,95.132z
					"/>
				<path fill="#333333" d="M77.868,78.29c0,11.244,9.145,20.389,20.389,20.389c11.243,0,20.389-9.145,20.389-20.389
					c0-11.242-9.146-20.389-20.389-20.389C87.013,57.901,77.868,67.048,77.868,78.29z M114.952,78.29
					c0,9.205-7.491,16.695-16.695,16.695c-9.206,0-16.696-7.49-16.696-16.695c0-9.207,7.49-16.695,16.696-16.695
					C107.461,61.595,114.952,69.083,114.952,78.29z"/>
				<path fill="#333333" d="M73.308,85.094c-1.527,0.437-3.075,0.658-4.599,0.658c-9.205,0-16.696-7.491-16.696-16.696
					c0-9.206,7.491-16.695,16.696-16.695c5.025,0,9.735,2.234,12.924,6.133l2.861-2.34c-3.895-4.758-9.648-7.487-15.787-7.487
					c-11.243,0-20.389,9.147-20.389,20.39c0,11.243,9.146,20.389,20.389,20.389c1.867,0,3.755-0.27,5.612-0.799L73.308,85.094z"/>
				<path fill="#333333" d="M44.796,106.882c0-7.251,3.653-13.936,9.771-17.88l-2.002-3.106
					c-7.178,4.633-11.463,12.475-11.463,20.986v13.812h24.009V117H44.796V106.882z"/>
				<path fill="#333333" d="M148.196,69.056c0-11.242-9.146-20.389-20.389-20.389c-6.137,0-11.89,2.729-15.785,7.488l2.861,2.34
					c3.189-3.9,7.9-6.135,12.924-6.135c9.205,0,16.696,7.489,16.696,16.695c0,9.205-7.491,16.696-16.696,16.696
					c-1.523,0-3.071-0.221-4.599-0.657l-1.018,3.549c1.858,0.533,3.747,0.805,5.616,0.805
					C139.05,89.445,148.196,80.3,148.196,69.056z"/>
				<path fill="#333333" d="M144.144,85.898l-2.002,3.106c6.118,3.944,9.771,10.629,9.771,17.877V117h-18.468l0,0h-3.694v3.694
					h25.856v-13.813C155.607,98.37,151.322,90.528,144.144,85.898z"/>
			</g>
		</g>
	</g>
	<polyline opacity="0.8" fill="#4285F4" points="87.022,101.296 98.355,120.724 109.685,101.295 	"/>
</g>
</svg>
