<?xml version="1.0" encoding="utf-8"?>
<!-- Generator: Adobe Illustrator 16.0.3, SVG Export Plug-In . SVG Version: 6.00 Build 0)  -->
<!DOCTYPE svg PUBLIC "-//W3C//DTD SVG 1.1//EN" "http://www.w3.org/Graphics/SVG/1.1/DTD/svg11.dtd">
<svg version="1.1" id="圖層_1" xmlns="http://www.w3.org/2000/svg" xmlns:xlink="http://www.w3.org/1999/xlink" x="0px" y="0px"
	 width="169.583px" height="60px" viewBox="0 0 169.583 60" enable-background="new 0 0 169.583 60" xml:space="preserve">
<g>
	<g>
		<path fill="#99CE66" d="M43.99,19.382c0.476-2.448,0.241-5.909,0.015-8.054c-8.456-2.822-22.154-3.993-33.54,3.832
			c-0.247,2.753-0.119,5.618,0.358,8.487c2.038-1.505,4.998-3.557,6.993-4.368C27.873,13.684,41.746,16.922,43.99,19.382z"/>
		<g>
			<path fill="#F7EB37" d="M17.72,19.236c0.035-0.02,0.071-0.037,0.106-0.056c-1.995,0.81-4.954,2.862-6.992,4.367
				c1.819,10.933,8.781,21.945,20.03,27.266c2.53-1.288,4.833-2.846,6.915-4.59c-4.192-1.657-6.848-3.788-6.848-3.788
				C22.375,37.72,18.145,27.461,17.72,19.236z"/>
			<path fill="#0062A3" d="M51.386,15.164c-1.115-1.233-3.768-2.734-7.372-3.937c0.227,2.146,0.461,5.605-0.015,8.055
				c0.002,0.002,0.006,0.004,0.008,0.007c0.501,6.188-3.995,17.929-13.078,23.146c0,0,2.656,2.131,6.848,3.788
				C48.296,37.415,53.041,23.773,51.386,15.164z"/>
		</g>
	</g>
	
		<text transform="matrix(1.2 0 0 1 55.7939 31.6436)" fill="#333333" font-family="'jf-jinxuan-fresh-Medium-B5pc-H'" font-size="21.8913">永訊智庫</text>
	<g>
		
			<text transform="matrix(1 0 0 1 57.9131 45.4932)" fill="#333333" font-family="'jf-jinxuan-fresh-Medium-B5pc-H'" font-size="10.9456">Digital Sustainability </text>
	</g>
</g>
</svg>
