<?xml version="1.0" encoding="utf-8"?>
<!-- Generator: Adobe Illustrator 16.0.3, SVG Export Plug-In . SVG Version: 6.00 Build 0)  -->
<!DOCTYPE svg PUBLIC "-//W3C//DTD SVG 1.1//EN" "http://www.w3.org/Graphics/SVG/1.1/DTD/svg11.dtd">
<svg version="1.1" id="圖層_1" xmlns="http://www.w3.org/2000/svg" xmlns:xlink="http://www.w3.org/1999/xlink" x="0px" y="0px"
	 width="169.583px" height="60px" viewBox="0 0 169.583 60" enable-background="new 0 0 169.583 60" xml:space="preserve">
<g>
	<path fill="#99CE66" d="M43.99,19.382c0.476-2.448,0.241-5.909,0.015-8.054c-8.456-2.822-22.154-3.993-33.54,3.832
		c-0.247,2.753-0.119,5.618,0.358,8.487c2.038-1.505,4.998-3.557,6.993-4.368C27.873,13.684,41.746,16.922,43.99,19.382z"/>
	<g>
		<path fill="#F7EB37" d="M17.72,19.236c0.035-0.02,0.071-0.037,0.106-0.056c-1.995,0.81-4.954,2.862-6.992,4.367
			c1.819,10.933,8.781,21.945,20.03,27.266c2.53-1.288,4.833-2.846,6.915-4.59c-4.192-1.657-6.848-3.788-6.848-3.788
			C22.375,37.72,18.145,27.461,17.72,19.236z"/>
		<path fill="#0062A3" d="M51.386,15.164c-1.115-1.233-3.768-2.734-7.372-3.937c0.227,2.146,0.461,5.605-0.015,8.055
			c0.002,0.002,0.006,0.004,0.008,0.007c0.501,6.188-3.995,17.929-13.078,23.146c0,0,2.656,2.131,6.848,3.788
			C48.296,37.415,53.041,23.773,51.386,15.164z"/>
	</g>
</g>
<g>
	<path fill="#333333" d="M67.145,22.097c-1.34,4.204-4.204,7.751-9.459,10.007l-0.526-0.679c4.52-2.869,6.148-5.825,6.963-8.781
		l-5.702,0.022v-0.985l5.623-0.022l0.762-0.481L67.145,22.097z M80.834,29.476l-2.154,2.365c-2.023-1.292-5.676-3.35-7.909-9.438
		v8.474c0,2.759-2.732,3.394-7.515,0.964l0.315-0.767c4.178,0.788,4.729,0.569,4.729-0.613V18.703h-6.569v-1.095h9.039v1.708
		c0.447,1.335,0.999,2.452,1.603,3.438c1.261-0.897,2.864-2.277,4.283-4.27l2.47,1.62c-2.128,1.555-4.467,2.781-6.201,3.46
		C75.475,27.199,78.864,28.534,80.834,29.476z M71.665,16.82c-2.102-1.117-4.756-2.299-7.252-3.175l0.263-0.788
		c2.417,0.285,6.516,1.117,8.277,1.839L71.665,16.82z"/>
	<path fill="#333333" d="M93.336,17.937h-9.827v-0.985h4.834c-0.736-1.205-1.655-2.518-2.338-3.394l0.736-0.481
		c1.313,0.766,2.812,1.97,3.731,3l-1.498,0.876h4.388L93.336,17.937z M84.665,20.257h7.831v0.92h-7.831V20.257z M92.416,24.002
		h-7.751v-0.92h7.751V24.002z M84.77,26.257h7.725v6.832h-2.076v-1.205h-3.626v1.533H84.77V26.257z M86.793,30.921h3.6v-3.7h-3.6
		V30.921z M104.871,33.242c-2.812-0.985-3.021-5.847-3.021-13.116v-4.62h-3.6v6.788h3.021v0.985H98.25v10.226h-2.365V23.279h-2.837
		v-0.985h2.837v-6.788h-2.864v-0.985h11.22l-0.079,5.627c-0.105,6.941,0.526,10.379,1.104,10.729
		c0.552,0.329,0.631-0.372,0.578-3.591h0.946C108.576,32.716,106.631,33.855,104.871,33.242z"/>
	<path fill="#333333" d="M110.093,25.403l-0.394-0.723c2.575-1.095,4.677-2.233,5.623-4.971h-4.782v-0.985h5.071
		c0.131-0.657,0.236-1.401,0.263-2.233h-1.918c-0.736,0.832-1.524,1.577-2.233,2.08l-0.657-0.547c1.104-1.379,2.049-3.328,2.47-5.08
		l2.522,0.548c-0.315,0.613-0.788,1.313-1.314,2.014h7.515v0.985h-3.968c-0.053,0.81-0.131,1.555-0.289,2.233h4.835v0.985h-5.15
		c-0.079,0.219-0.184,0.438-0.263,0.657c1.918,0.504,3.81,1.205,5.098,1.905l-1.393,1.73c-1.051-0.854-2.522-1.839-4.178-2.803
		C115.585,23.301,113.22,24.527,110.093,25.403z M114.219,24.352h14.819v9h-2.312V31.95h-10.195v1.511h-2.312V24.352z
		 M116.531,27.483h10.195v-2.146h-10.195V27.483z M116.531,30.965h10.195v-2.496h-10.195V30.965z M132.086,15.112v8.342h-2.26
		v-1.489h-4.23v1.708h-2.26v-8.562H132.086z M129.827,20.98v-4.883h-4.23v4.883H129.827z"/>
	<path fill="#333333" d="M159.197,15.681v0.985h-18.813v4.817c0,6.438-1.34,9.634-3.915,12.043l-0.762-0.482
		c1.787-2.474,2.365-6.087,2.365-11.693v-5.671h11.01c-1.367-0.767-2.733-1.423-4.046-1.993l0.263-0.766
		c1.865,0.241,4.099,0.701,5.912,1.423l-0.867,1.336H159.197z M150.657,29.038h8.514v0.985h-8.514v3.372h-2.259v-3.372h-8.33v-0.985
		h8.33v-1.555h-6.149v-6.35h6.149v-1.489h-7.357v-0.985h7.357v-1.467h2.259v1.467h7.436v0.985h-7.436v1.489h6.175v6.35h-6.175
		V29.038z M148.397,22.119h-3.941v1.664h3.941V22.119z M148.397,24.768h-3.941v1.73h3.941V24.768z M150.657,23.783h3.968v-1.664
		h-3.968V23.783z M150.657,26.498h3.968v-1.73h-3.968V26.498z"/>
</g>
<g>
	<g>
		<path fill="#333333" d="M64.401,44.005c-0.646,0.897-1.696,1.444-3.217,1.488c-0.798,0.022-1.597-0.011-2.396-0.077v-7.888
			c0.755-0.055,1.652-0.109,2.472-0.077c1.849,0.077,2.845,0.832,3.359,1.784c0.35,0.646,0.438,1.389,0.438,2.253
			C65.057,42.452,64.893,43.316,64.401,44.005z M60.878,38.196c-0.306,0-0.646,0.011-0.952,0.055v6.433
			c0.284,0.077,0.602,0.087,0.886,0.087c2.133,0,3.063-1.028,3.063-3.304C63.875,39.147,62.968,38.196,60.878,38.196z"/>
		<path fill="#333333" d="M67.15,38.524c-0.361,0-0.667-0.295-0.667-0.634c0-0.35,0.307-0.624,0.667-0.624
			c0.372,0,0.657,0.273,0.657,0.624C67.807,38.229,67.522,38.524,67.15,38.524z M66.636,39.804h1.028v5.689h-1.028V39.804z"/>
		<path fill="#333333" d="M69.329,47.331v-0.766c0.7,0.492,1.291,0.711,2.123,0.711c1.116-0.033,1.641-0.842,1.707-1.729
			c0.044-0.405,0.055-0.678,0.055-1.083c-0.295,0.624-1.028,1.018-1.739,1.018c-1.805,0-2.626-1.149-2.626-2.867
			c0-1.663,1.018-3.009,2.691-2.998c0.854,0.011,1.499,0.481,1.74,1.05v-0.864h0.93l0.011,4.792
			c0.021,2.046-0.755,3.304-2.855,3.304C70.816,47.9,70.029,47.791,69.329,47.331z M71.735,40.187
			c-1.291,0.022-1.783,1.28-1.783,2.418c0,1.05,0.471,2.243,1.707,2.265c1.072,0.022,1.586-1.171,1.586-2.254
			C73.289,41.379,72.786,40.198,71.735,40.187z"/>
		<path fill="#333333" d="M76.476,38.524c-0.361,0-0.667-0.295-0.667-0.634c0-0.35,0.307-0.624,0.667-0.624
			c0.372,0,0.657,0.273,0.657,0.624C77.133,38.229,76.848,38.524,76.476,38.524z M75.962,39.804h1.028v5.689h-1.028V39.804z"/>
		<path fill="#333333" d="M80.667,45.581c-0.722,0-1.05-0.219-1.248-0.514c-0.229-0.339-0.295-0.798-0.295-1.258v-3.37h-0.897
			v-0.612h0.897v-1.532h1.029v1.532h1.334v0.612h-1.334v3.414c0,0.58,0.043,1.061,0.755,1.061c0.219,0,0.383-0.033,0.624-0.164
			v0.657C81.269,45.537,80.941,45.581,80.667,45.581z"/>
		<path fill="#333333" d="M85.91,44.629c-0.306,0.514-0.919,0.864-1.729,0.897c-1.641,0.066-2.101-0.755-2.068-1.674
			c0.033-1.006,0.843-1.783,2.67-1.871c0.438-0.022,0.776-0.011,1.039,0.033v-0.405c0-0.974-0.394-1.368-1.16-1.368
			c-0.7,0-1.532,0.405-2.111,0.799v-0.766c0.569-0.306,1.411-0.613,2.166-0.634c1.324-0.044,2.145,0.711,2.145,1.969v2.647
			c0.011,0.328,0.065,0.919,0.142,1.247h-1.018C85.932,45.22,85.921,44.88,85.91,44.629z M84.849,42.594
			c-0.886,0.055-1.707,0.372-1.718,1.226c-0.011,0.689,0.383,1.039,1.16,1.039c0.471,0,0.81-0.076,1.149-0.416
			c0.427-0.47,0.394-0.842,0.405-1.291v-0.514C85.604,42.583,85.221,42.572,84.849,42.594z"/>
		<path fill="#333333" d="M88.374,37.102h1.029v6.761c0,0.766-0.022,1.138,0.569,1.138c0.175,0,0.394-0.055,0.602-0.153v0.656
			c-0.58,0.241-1.324,0.274-1.739-0.076c-0.307-0.252-0.46-0.733-0.46-1.488V37.102z"/>
		<path fill="#333333" d="M96.188,45.657c-0.798,0.011-1.477-0.109-2.133-0.459v-0.963c0.711,0.503,1.16,0.7,2.112,0.678
			c1.05-0.021,1.772-0.612,1.772-1.488c0-0.777-0.503-1.17-1.126-1.433L95.619,41.5c-0.678-0.285-1.444-0.689-1.444-1.948
			c0-1.466,1.061-2.243,2.385-2.231c1.182,0.011,1.543,0.229,1.926,0.394v1.062c-0.624-0.427-0.952-0.733-1.838-0.733
			c-0.908,0-1.434,0.755-1.434,1.379c0,0.81,0.427,0.952,1.105,1.258l1.007,0.449c0.525,0.229,1.663,0.733,1.663,2.177
			C98.989,44.88,97.731,45.635,96.188,45.657z"/>
		<path fill="#333333" d="M101.322,43.611c0,0.744,0.273,1.368,1.192,1.368c1.182,0,1.564-1.018,1.564-2.013v-3.162h1.028v5.689
			h-0.941v-1.061c-0.306,0.612-0.897,1.236-1.925,1.236c-1.291,0-1.948-0.755-1.948-1.937v-3.928h1.029V43.611z"/>
		<path fill="#333333" d="M107.977,45.679c-0.591,0-1.16-0.142-1.718-0.438v-0.766c0.547,0.339,0.974,0.536,1.729,0.547
			c1.029,0.011,1.149-0.591,1.149-0.974c0-0.438-0.383-0.755-1.05-1.017c-1.182-0.459-1.75-0.832-1.75-1.762
			c0-1.006,0.875-1.63,2.046-1.63c0.449,0,0.985,0.109,1.477,0.35v0.788c-0.514-0.438-1.116-0.481-1.4-0.481
			c-0.678,0-1.138,0.339-1.138,0.766c0,0.558,0.197,0.711,1.105,1.105c1.039,0.448,1.717,0.93,1.717,1.761
			C110.143,44.968,109.618,45.69,107.977,45.679z"/>
		<path fill="#333333" d="M113.295,45.581c-0.722,0-1.05-0.219-1.248-0.514c-0.229-0.339-0.295-0.798-0.295-1.258v-3.37h-0.897
			v-0.612h0.897v-1.532h1.029v1.532h1.334v0.612h-1.334v3.414c0,0.58,0.043,1.061,0.755,1.061c0.219,0,0.383-0.033,0.624-0.164
			v0.657C113.897,45.537,113.569,45.581,113.295,45.581z"/>
		<path fill="#333333" d="M118.538,44.629c-0.306,0.514-0.919,0.864-1.729,0.897c-1.641,0.066-2.101-0.755-2.068-1.674
			c0.033-1.006,0.843-1.783,2.67-1.871c0.438-0.022,0.776-0.011,1.039,0.033v-0.405c0-0.974-0.394-1.368-1.16-1.368
			c-0.7,0-1.532,0.405-2.111,0.799v-0.766c0.569-0.306,1.411-0.613,2.166-0.634c1.324-0.044,2.145,0.711,2.145,1.969v2.647
			c0.011,0.328,0.065,0.919,0.142,1.247h-1.018C118.56,45.22,118.549,44.88,118.538,44.629z M117.477,42.594
			c-0.886,0.055-1.707,0.372-1.718,1.226c-0.011,0.689,0.383,1.039,1.16,1.039c0.471,0,0.81-0.076,1.149-0.416
			c0.427-0.47,0.394-0.842,0.405-1.291v-0.514C118.231,42.583,117.849,42.572,117.477,42.594z"/>
		<path fill="#333333" d="M121.615,38.524c-0.361,0-0.667-0.295-0.667-0.634c0-0.35,0.307-0.624,0.667-0.624
			c0.372,0,0.657,0.273,0.657,0.624C122.271,38.229,121.987,38.524,121.615,38.524z M121.101,39.804h1.028v5.689h-1.028V39.804z"/>
		<path fill="#333333" d="M127.589,41.686c0-0.744-0.273-1.368-1.192-1.368c-1.182,0-1.564,1.018-1.564,2.013v3.162h-1.029v-5.689
			h0.941v1.061c0.307-0.613,0.897-1.236,1.926-1.236c1.291,0,1.947,0.755,1.947,1.937v3.928h-1.028V41.686z"/>
		<path fill="#333333" d="M133.544,44.629c-0.306,0.514-0.919,0.864-1.729,0.897c-1.641,0.066-2.101-0.755-2.068-1.674
			c0.033-1.006,0.843-1.783,2.67-1.871c0.438-0.022,0.776-0.011,1.039,0.033v-0.405c0-0.974-0.394-1.368-1.16-1.368
			c-0.7,0-1.532,0.405-2.111,0.799v-0.766c0.569-0.306,1.411-0.613,2.166-0.634c1.324-0.044,2.145,0.711,2.145,1.969v2.647
			c0.011,0.328,0.065,0.919,0.142,1.247h-1.018C133.566,45.22,133.555,44.88,133.544,44.629z M132.483,42.594
			c-0.886,0.055-1.707,0.372-1.718,1.226c-0.011,0.689,0.383,1.039,1.16,1.039c0.471,0,0.81-0.076,1.149-0.416
			c0.427-0.47,0.394-0.842,0.405-1.291v-0.514C133.238,42.583,132.855,42.572,132.483,42.594z"/>
		<path fill="#333333" d="M136.008,45.493v-8.402h1.029v3.501c0.306-0.536,0.919-0.974,1.794-0.963
			c1.51-0.011,2.462,1.226,2.462,2.943c0,1.729-0.766,3.107-2.517,3.107c-0.952,0-1.597-0.635-1.827-1.138v0.952H136.008z
			 M136.938,42.922c0.087,1.181,0.678,2.155,1.663,2.177c1.302-0.021,1.586-1.378,1.586-2.516c0-1.05-0.274-2.418-1.51-2.418
			c-0.985-0.043-1.652,0.985-1.729,1.98L136.938,42.922z"/>
		<path fill="#333333" d="M143.275,38.524c-0.361,0-0.667-0.295-0.667-0.634c0-0.35,0.307-0.624,0.667-0.624
			c0.372,0,0.657,0.273,0.657,0.624C143.932,38.229,143.647,38.524,143.275,38.524z M142.761,39.804h1.028v5.689h-1.028V39.804z"/>
		<path fill="#333333" d="M145.52,37.102h1.029v6.761c0,0.766-0.022,1.138,0.569,1.138c0.175,0,0.394-0.055,0.602-0.153v0.656
			c-0.58,0.241-1.324,0.274-1.739-0.076c-0.307-0.252-0.46-0.733-0.46-1.488V37.102z"/>
		<path fill="#333333" d="M149.394,38.524c-0.361,0-0.667-0.295-0.667-0.634c0-0.35,0.307-0.624,0.667-0.624
			c0.372,0,0.657,0.273,0.657,0.624C150.051,38.229,149.766,38.524,149.394,38.524z M148.88,39.804h1.028v5.689h-1.028V39.804z"/>
		<path fill="#333333" d="M153.585,45.581c-0.722,0-1.05-0.219-1.248-0.514c-0.229-0.339-0.295-0.798-0.295-1.258v-3.37h-0.897
			v-0.612h0.897v-1.532h1.029v1.532h1.334v0.612h-1.334v3.414c0,0.58,0.043,1.061,0.755,1.061c0.219,0,0.383-0.033,0.624-0.164
			v0.657C154.187,45.537,153.859,45.581,153.585,45.581z"/>
		<path fill="#333333" d="M157.198,45.176l-2.287-5.383h1.138l1.127,3.096c0.186,0.471,0.328,0.788,0.481,1.236h0.065
			c0.131-0.405,0.241-0.678,0.394-1.083l1.061-3.25h0.963l-2.035,5.295c-0.449,1.083-0.93,1.915-1.357,2.374
			c-0.47,0.536-1.116,0.503-1.816,0.295v-0.864c0.536,0.285,0.984,0.438,1.356,0.044C156.53,46.686,156.968,45.942,157.198,45.176z"
			/>
	</g>
</g>
</svg>
